<?xml version="1.0" encoding="UTF-8"?>
<svg width="40px" height="40px" viewBox="0 0 40 40" version="1.1" xmlns="http://www.w3.org/2000/svg" xmlns:xlink="http://www.w3.org/1999/xlink">
    <!-- Generator: Sketch 41.1 (35376) - http://www.bohemiancoding.com/sketch -->
    <title>edit</title>
    <desc>Created with Sketch.</desc>
    <defs></defs>
    <g id="Page-1" stroke="none" stroke-width="1" fill="none" fill-rule="evenodd">
        <g id="icons" transform="translate(-210.000000, -230.000000)" fill="#000000">
            <g id="Group-5" transform="translate(218.000000, 238.000000)">
                <g id="Group-4" transform="translate(12.106602, 12.106602) rotate(-315.000000) translate(-12.106602, -12.106602) translate(7.606602, 0.106602)">
                    <path d="M2.73866994,18.1733974 C2.73866994,18.5141986 2.93796419,19.173686 3.12872191,19.4633168 L4.65027682,21.7735207 L6.31223319,19.3995966 C6.49789939,19.1343926 6.70016786,18.493694 6.70016786,18.1733974 L6.70016786,2.84468983 L2.73866994,2.84468983 L2.73866994,18.1733974 Z M1.08866994,2.38693692 C1.08866994,1.72847704 1.63446249,1.19468983 2.28775863,1.19468983 L7.15107916,1.19468983 C7.81331756,1.19468983 8.35016786,1.71891464 8.35016786,2.38693692 L8.35016786,18.1733974 C8.35016786,18.8318573 8.04398107,19.8029991 7.66390981,20.3458896 L5.98058696,22.7503333 C5.222869,23.8326511 4.01150616,23.8034386 3.2879042,22.7047809 L1.7507451,20.370885 C1.38509108,19.815706 1.08866994,18.8414197 1.08866994,18.1733974 L1.08866994,2.38693692 Z" id="Rectangle-3"></path>
                    <polygon id="Path-3" points="2.12048932 6.62339382 8.21189912 6.62339382 8.21189912 4.97339382 2.12048932 4.97339382"></polygon>
                </g>
            </g>
        </g>
    </g>
</svg>