<?xml version="1.0" encoding="iso-8859-1"?>
<!-- Generator: Adobe Illustrator 18.0.0, SVG Export Plug-In . SVG Version: 6.00 Build 0)  -->
<!DOCTYPE svg PUBLIC "-//W3C//DTD SVG 1.1//EN" "http://www.w3.org/Graphics/SVG/1.1/DTD/svg11.dtd">
<svg version="1.1" id="Capa_1" xmlns="http://www.w3.org/2000/svg" xmlns:xlink="http://www.w3.org/1999/xlink" x="0px" y="0px"
	 viewBox="0 0 228.085 228.085" style="enable-background:new 0 0 228.085 228.085;" xml:space="preserve">
<g>
	<path d="M37.885,77.108H9.282C4.156,77.108,0,81.264,0,86.39v100.187c0,5.126,4.156,9.282,9.282,9.282h28.602
		c5.126,0,9.282-4.156,9.282-9.282V86.39C47.167,81.264,43.011,77.108,37.885,77.108z"/>
	<path d="M228.082,118.685c0.173-9.24-7.676-16.802-16.917-16.802h-4.385c4.695-2.906,7.833-8.087,7.833-14.014
		c0-9.105-7.382-16.487-16.487-16.487l-54.194-0.166c-3.021,0-5.436-2.593-5.143-5.674c0.256-2.686,2.666-4.659,5.365-4.659h14.632
		c4.569,0,6.721-5.643,3.313-8.685l-17.683-15.785c-6.574-5.871-16.601-5.529-22.764,0.769c0,0-31.329,32.587-42.181,43.11
		c-8.751,8.486-15.707,19.258-15.707,32.366v39.536c0,24.116,19.55,43.666,43.666,43.666h77.346c9.091,0,16.949-7.433,16.93-16.524
		c-0.013-5.911-3.148-11.077-7.833-13.977h4.917c9.091,0,16.949-7.433,16.93-16.524c-0.013-5.911-3.148-11.077-7.833-13.977h3.71
		C220.598,134.858,227.914,127.646,228.082,118.685z"/>
</g>
<g>
</g>
<g>
</g>
<g>
</g>
<g>
</g>
<g>
</g>
<g>
</g>
<g>
</g>
<g>
</g>
<g>
</g>
<g>
</g>
<g>
</g>
<g>
</g>
<g>
</g>
<g>
</g>
<g>
</g>
</svg>