<?xml version="1.0" encoding="UTF-8"?>
<svg width="40px" height="40px" viewBox="0 0 40 40" version="1.1" xmlns="http://www.w3.org/2000/svg" xmlns:xlink="http://www.w3.org/1999/xlink">
    <!-- Generator: Sketch 41.1 (35376) - http://www.bohemiancoding.com/sketch -->
    <title>gitub</title>
    <desc>Created with Sketch.</desc>
    <defs></defs>
    <g id="Page-1" stroke="none" stroke-width="1" fill="none" fill-rule="evenodd">
        <g id="icons" transform="translate(-290.000000, -230.000000)" fill="#000000">
            <path d="M310.5,240 C304.69875,240 300,244.817599 300,250.765585 C300,255.529357 303.005625,259.552994 307.179375,260.979434 C307.704375,261.073633 307.90125,260.750666 307.90125,260.468069 C307.90125,260.212386 307.888125,259.364597 307.888125,258.462979 C305.25,258.960887 304.5675,257.803587 304.3575,257.198023 C304.239375,256.888512 303.7275,255.933066 303.28125,255.677384 C302.91375,255.475529 302.38875,254.977621 303.268125,254.964164 C304.095,254.950707 304.685625,255.744669 304.8825,256.067636 C305.8275,257.695931 307.336875,257.238394 307.940625,256.955797 C308.0325,256.256034 308.308125,255.78504 308.61,255.5159 C306.27375,255.24676 303.8325,254.318229 303.8325,250.200392 C303.8325,249.029635 304.239375,248.060732 304.90875,247.307141 C304.80375,247.038001 304.43625,245.934529 305.01375,244.454261 C305.01375,244.454261 305.893125,244.171664 307.90125,245.557733 C308.74125,245.315508 309.63375,245.194395 310.52625,245.194395 C311.41875,245.194395 312.31125,245.315508 313.15125,245.557733 C315.159375,244.158207 316.03875,244.454261 316.03875,244.454261 C316.61625,245.934529 316.24875,247.038001 316.14375,247.307141 C316.813125,248.060732 317.22,249.016178 317.22,250.200392 C317.22,254.331685 314.765625,255.24676 312.429375,255.5159 C312.81,255.852324 313.138125,256.49826 313.138125,257.507533 C313.138125,258.94743 313.125,260.104731 313.125,260.468069 C313.125,260.750666 313.321875,261.08709 313.846875,260.979434 C318.120961,259.50005 320.998847,255.390756 321,250.765585 C321,244.817599 316.30125,240 310.5,240 L310.5,240 Z" id="Shape"></path>
        </g>
    </g>
</svg>