<?xml version="1.0" encoding="UTF-8"?>
<svg width="40px" height="40px" viewBox="0 0 40 40" version="1.1" xmlns="http://www.w3.org/2000/svg" xmlns:xlink="http://www.w3.org/1999/xlink">
    <!-- Generator: Sketch 41.1 (35376) - http://www.bohemiancoding.com/sketch -->
    <title>pin</title>
    <desc>Created with Sketch.</desc>
    <defs></defs>
    <g id="Page-1" stroke="none" stroke-width="1" fill="none" fill-rule="evenodd">
        <g id="icons" transform="translate(-330.000000, -230.000000)" fill="#000000">
            <g id="Group-7" transform="translate(341.000000, 238.000000)">
                <path d="M3.04487023,10.2035721 C1.44701264,11.1288025 0.48,12.4144898 0.48,13.9332802 C0.480069679,14.6494443 1.04392071,15.228563 1.73785941,15.2286342 L16.262069,15.2286342 C16.9560793,15.228563 17.5199303,14.6494443 17.52,13.9333548 C17.52,12.414494 16.5529874,11.1288027 14.9551298,10.2035721 L13.7297128,5.33016286 C14.4039318,4.84012833 14.8303448,4.04178007 14.8303448,3.15959142 C14.8303448,1.68683111 13.6582459,0.482995267 12.2275862,0.482995267 L5.77241379,0.482995267 C4.3417541,0.482995267 3.16965517,1.68683111 3.16965517,3.15959142 C3.16965517,4.04178007 3.59606816,4.84012833 4.27028717,5.33016286 L3.04487023,10.2035721 Z M1.929799,13.7429199 C2.02073824,12.8612565 2.74217077,12.0249605 3.99064531,11.3659606 L4.27845905,11.2140399 L5.96716709,4.49814994 L5.36504872,4.26114392 C4.91225243,4.08291409 4.60965517,3.64696174 4.60965517,3.15959142 C4.60965517,2.50888073 5.13558573,1.96870955 5.77241379,1.96870955 L12.2275862,1.96870955 C12.8644143,1.96870955 13.3903448,2.50888073 13.3903448,3.15959142 C13.3903448,3.64696174 13.0877476,4.08291409 12.6349513,4.26114392 L12.0328329,4.49814994 L13.721541,11.2140399 L14.0093547,11.3659606 C15.2578006,12.0249454 15.9792287,12.8612182 16.0701947,13.7429199 L1.929799,13.7429199 Z" id="Shape"></path>
                <path d="M8.45173295,14.6554403 L8.45173295,24.0483452 C8.45173295,24.4586138 8.77408793,24.7912023 9.17173295,24.7912023 C9.56937797,24.7912023 9.89173295,24.4586138 9.89173295,24.0483452 L9.89173295,14.6554403 C9.89173295,14.2451716 9.56937797,13.9125832 9.17173295,13.9125832 C8.77408793,13.9125832 8.45173295,14.2451716 8.45173295,14.6554403 Z" id="Path-4"></path>
            </g>
        </g>
    </g>
</svg>