<?xml version="1.0" encoding="UTF-8"?>
<svg width="40px" height="40px" viewBox="0 0 40 40" version="1.1" xmlns="http://www.w3.org/2000/svg" xmlns:xlink="http://www.w3.org/1999/xlink">
    <!-- Generator: Sketch 41.1 (35376) - http://www.bohemiancoding.com/sketch -->
    <title>tags</title>
    <desc>Created with Sketch.</desc>
    <defs></defs>
    <g id="Page-1" stroke="none" stroke-width="1" fill="none" fill-rule="evenodd">
        <g id="icons" transform="translate(-170.000000, -230.000000)" fill="#000000">
            <g id="Group-6" transform="translate(190.960155, 249.960155) rotate(-315.000000) translate(-190.960155, -249.960155) translate(185.460155, 239.960155)">
                <path d="M1.57142857,6.25652999 L1.57142857,18.4493524 C1.57142857,18.4564568 9.4239682,18.4615385 9.4239682,18.4615385 C9.43348765,18.4615385 9.42857143,6.25652999 9.42857143,6.25652999 C9.42857143,5.84613498 9.09303804,5.1214895 8.78279665,4.85747469 L5.62553582,2.17065199 C5.56469672,2.11887804 5.38674974,2.11978576 5.32049291,2.17678535 L2.22421907,4.84045493 C1.90432235,5.11565642 1.57142857,5.83869453 1.57142857,6.25652999 Z M1.78650745e-13,6.25652999 C1.78650745e-13,5.40013095 0.524501993,4.25466257 1.18694338,3.68477597 L4.28321721,1.02110638 C4.93874794,0.4571649 6.00038484,0.451219783 6.65644988,1.00952983 L9.81371071,3.69635252 C10.4688802,4.25390045 11,5.40278084 11,6.25652999 L11,18.4493524 C11,19.3057514 10.3119007,20 9.4239682,20 L1.5760318,20 C0.705613473,20 1.78650745e-13,19.3031015 1.78650745e-13,18.4493524 L1.78650745e-13,6.25652999 Z" id="Rectangle-4"></path>
                <ellipse id="Oval-2" cx="5.5" cy="6.47058824" rx="1.83333333" ry="1.76470588"></ellipse>
            </g>
        </g>
    </g>
</svg>