<?xml version="1.0" encoding="UTF-8"?>
<svg width="120px" height="18px" viewBox="0 0 120 18" version="1.1" xmlns="http://www.w3.org/2000/svg" xmlns:xlink="http://www.w3.org/1999/xlink">
    <!-- Generator: Sketch 41.1 (35376) - http://www.bohemiancoding.com/sketch -->
    <title>Page 1</title>
    <desc>Created with Sketch.</desc>
    <defs></defs>
    <g id="HP-NEW" stroke="none" stroke-width="1" fill="none" fill-rule="evenodd">
        <g id="04-Hero" transform="translate(-35.000000, -25.000000)">
            <g id="Page-1" transform="translate(35.000000, 25.000000)">
                <polygon id="Fill-1" fill="#FFFFFF" points="0 16.9425771 1.787 16.9425771 1.787 0.652062857 0 0.652062857"></polygon>
                <polygon id="Fill-2" fill="#FFFFFF" points="5.1124 0.651548571 6.7859 0.651548571 16.7644 13.7066914 16.7644 0.651548571 18.5069 0.651548571 18.5069 16.9425771 17.0814 16.9425771 6.8549 3.58297714 6.8549 16.9425771 5.1124 16.9425771"></polygon>
                <polygon id="Fill-3" fill="#FFFFFF" points="27.1495 2.35059429 21.832 2.35059429 21.832 0.651394286 34.2765 0.651394286 34.2765 2.35059429 28.9595 2.35059429 28.9595 16.9424229 27.1495 16.9424229"></polygon>
                <polygon id="Fill-4" fill="#FFFFFF" points="37.60215 0.651548571 49.05065 0.651548571 49.05065 2.32709143 39.38915 2.32709143 39.38915 7.88909143 48.03315 7.88909143 48.03315 9.56463429 39.38915 9.56463429 39.38915 15.2670343 49.16365 15.2670343 49.16365 16.9425771 37.60215 16.9425771"></polygon>
                <polygon id="Fill-5" fill="#FFFFFF" points="52.48935 0.651548571 54.27735 0.651548571 54.27735 15.2433771 63.19185 15.2433771 63.19185 16.9425771 52.48935 16.9425771"></polygon>
                <polygon id="Fill-6" fill="#FFFFFF" points="66.51745 0.651548571 68.30345 0.651548571 68.30345 15.2433771 77.21895 15.2433771 77.21895 16.9425771 66.51745 16.9425771"></polygon>
                <polygon id="Fill-7" fill="#FFFFFF" points="80.544 16.9425771 82.33 16.9425771 82.33 0.651548571 80.544 0.651548571"></polygon>
                <path d="M85.6556,8.84293714 L85.6556,8.79716571 C85.6556,4.32905143 88.8461,0.372651429 93.5976,0.372651429 C96.2671,0.372651429 97.9196,1.16413714 99.5036,2.53676571 L98.3496,3.93305143 C97.1276,2.83916571 95.7716,2.07185143 93.5301,2.07185143 C90.0236,2.07185143 87.5111,5.12002286 87.5111,8.74985143 L87.5111,8.79716571 C87.5111,12.6841371 89.9331,15.5697943 93.7786,15.5697943 C95.5881,15.5697943 97.2631,14.8482514 98.3496,13.9400229 L98.3496,9.89105143 L93.5301,9.89105143 L93.5301,8.23762286 L100.0696,8.23762286 L100.0696,14.7315086 C98.5981,16.08048 96.3806,17.22168 93.7111,17.22168 C88.7326,17.22168 85.6556,13.4972229 85.6556,8.84293714" id="Fill-8" fill="#FFFFFF"></path>
                <g id="Group-2" transform="translate(103.000000, 0.000000)" stroke="#12A8C0" stroke-width="0.4" fill="#12A8C0">
                    <path d="M7.58065,15.4488343 C4.44465,14.9854629 2.25115,12.17592 2.25115,8.79706286 L2.25115,8.74974857 C2.25115,5.35597714 4.42515,2.57523429 7.58065,2.13809143 L7.58065,0.422948571 C3.26665,0.884777143 0.39565,4.59586286 0.39565,8.79706286 L0.39565,8.84283429 C0.39565,13.0589486 3.24565,16.7402057 7.58065,17.1773486 L7.58065,15.4488343 Z" id="Stroke-10"></path>
                    <path d="M9.36655,0.416777143 L9.36655,2.14529143 C12.50405,2.60866286 14.69605,5.41820571 14.69605,8.79706286 L14.69605,8.84283429 C14.69605,12.2381486 12.52155,15.0188914 9.36655,15.4560343 L9.36655,17.1711771 C13.68055,16.7078057 16.55155,12.9982629 16.55155,8.79706286 L16.55155,8.74974857 C16.55155,4.53517714 13.70105,0.85392 9.36655,0.416777143 Z" id="Stroke-12"></path>
                </g>
            </g>
        </g>
    </g>
</svg>