<?xml version="1.0" encoding="UTF-8"?>
<svg width="40px" height="40px" viewBox="0 0 40 40" version="1.1" xmlns="http://www.w3.org/2000/svg" xmlns:xlink="http://www.w3.org/1999/xlink">
    <!-- Generator: Sketch 41.1 (35376) - http://www.bohemiancoding.com/sketch -->
    <title>edit-add</title>
    <desc>Created with Sketch.</desc>
    <defs></defs>
    <g id="Page-1" stroke="none" stroke-width="1" fill="none" fill-rule="evenodd">
        <g id="icons" transform="translate(-250.000000, -230.000000)" fill="#000000">
            <g id="Group-4" transform="translate(267.495689, 250.495689) rotate(-315.000000) translate(-267.495689, -250.495689) translate(258.995689, 238.495689)">
                <path d="M14.2307857,19.3995966 C14.4220782,19.1343926 14.630476,18.493694 14.630476,18.1733974 L14.630476,2.84468983 L10.5566788,2.84468983 L10.5743798,6.62373209 L8.87439736,6.63123328 L8.85458411,2.40123503 C8.8514629,1.73487852 9.41126439,1.19468983 10.0843574,1.19468983 L15.0950513,1.19468983 C15.7773575,1.19468983 16.330476,1.71891464 16.330476,2.38693692 L16.330476,18.1733974 C16.330476,18.8318573 16.0150108,19.8029991 15.6234222,20.3458896 L13.8890896,22.7503333 C13.1084105,23.8326511 11.8603397,23.8034386 11.1148104,22.7047809 L9.53107071,20.370885 C9.15433627,19.815706 8.82954807,18.824601 8.80562654,18.1569268 L8.57939354,11.8425351 L10.2783666,11.785192 L10.5045996,18.0995838 C10.51768,18.4646713 10.7460343,19.1615551 10.9508044,19.4633168 L12.518467,21.7735207 L14.2307857,19.3995966 Z" id="Rectangle-3"></path>
                <polygon id="Path-3" points="9.9120193 6.62339382 16.1880173 6.62339382 16.1880173 4.97339382 9.9120193 4.97339382"></polygon>
                <g id="Group-9" transform="translate(0.323243, 4.443623)">
                    <path d="M5.51942239,0.585337591 L1.15276673,4.82356221 C0.850997958,5.11645542 0.850997958,5.59132916 1.15276673,5.88422238 C1.4545355,6.1771156 1.94379935,6.1771156 2.24556812,5.88422238 L6.61222378,1.64599776 C6.91399255,1.35310454 6.91399255,0.87823081 6.61222378,0.585337591 C6.31045501,0.292444372 5.82119116,0.292444372 5.51942239,0.585337591 Z" id="Path-6"></path>
                    <path d="M6.61222378,4.82356221 L2.24556812,0.585337591 C1.94379935,0.292444372 1.4545355,0.292444372 1.15276673,0.585337591 C0.850997958,0.87823081 0.850997958,1.35310454 1.15276673,1.64599776 L5.51942239,5.88422238 C5.82119116,6.1771156 6.31045501,6.1771156 6.61222378,5.88422238 C6.91399255,5.59132916 6.91399255,5.11645542 6.61222378,4.82356221 Z" id="Path-6-Copy"></path>
                </g>
            </g>
        </g>
    </g>
</svg>