<?xml version="1.0" encoding="UTF-8"?>
<svg width="40px" height="40px" viewBox="0 0 40 40" version="1.1" xmlns="http://www.w3.org/2000/svg" xmlns:xlink="http://www.w3.org/1999/xlink">
    <!-- Generator: Sketch 41.1 (35376) - http://www.bohemiancoding.com/sketch -->
    <title>legal</title>
    <desc>Created with Sketch.</desc>
    <defs></defs>
    <g id="Page-1" stroke="none" stroke-width="1" fill="none" fill-rule="evenodd">
        <g id="icons" transform="translate(-130.000000, -230.000000)" fill="#000000">
            <path d="M144.461538,241 C143.104943,241 142,242.101802 142,243.454545 L142,258.590909 C142.000022,258.805103 142.195453,258.999979 142.410256,259 L153.487179,259 C153.701983,258.999979 153.897414,258.805103 153.897436,258.590909 L153.897436,250.818182 L157.589744,250.818182 C157.804547,250.81816 157.999978,250.623285 158,250.409091 L158,243.454545 C158,242.101802 156.895057,241 155.538462,241 L144.461538,241 Z M144.61205,242.141868 L153.496105,242.141868 C153.119361,242.559665 152.886596,243.109159 152.886596,243.713494 L152.886596,257.858132 L143.035946,257.858132 L143.035946,243.713494 C143.035946,242.836018 143.732073,242.141868 144.61205,242.141868 Z M155.538462,242.419221 C156.320073,242.419221 156.938387,243.035778 156.938387,243.815169 L156.938387,249.398961 L154.138536,249.398961 L154.138536,243.815169 C154.138536,243.035778 154.75685,242.419221 155.538462,242.419221 Z M144.423077,245.931399 C144.208238,245.943583 144.021899,246.192232 144.031969,246.453288 C144.04204,246.714344 144.246703,246.940722 144.461538,246.928432 L151.435897,246.928432 C151.65264,246.932156 151.851994,246.693314 151.851994,246.429916 C151.851994,246.166518 151.65264,245.927676 151.435897,245.931399 L144.461538,245.931399 C144.448728,245.930676 144.435888,245.930676 144.423077,245.931399 Z M144.423077,248.932499 C144.208238,248.944683 144.021899,249.193332 144.031969,249.454388 C144.04204,249.715444 144.246703,249.941822 144.461538,249.929532 L151.435897,249.929532 C151.65264,249.933256 151.851994,249.694413 151.851994,249.431016 C151.851994,249.167618 151.65264,248.928776 151.435897,248.932499 L144.461538,248.932499 C144.448728,248.931776 144.435888,248.931776 144.423077,248.932499 Z M144.423077,251.933599 C144.208238,251.945783 144.021899,252.194432 144.031969,252.455488 C144.04204,252.716544 144.246703,252.942922 144.461538,252.930632 L151.435897,252.930632 C151.65264,252.934356 151.851994,252.695513 151.851994,252.432116 C151.851994,252.168718 151.65264,251.929876 151.435897,251.933599 L144.461538,251.933599 C144.448728,251.932876 144.435888,251.932876 144.423077,251.933599 Z M144.423077,254.934699 C144.208238,254.946883 144.021899,255.195532 144.031969,255.456588 C144.04204,255.717644 144.246703,255.944022 144.461538,255.931732 L147.333333,255.931732 C147.550076,255.935456 147.74943,255.696613 147.74943,255.433216 C147.74943,255.169818 147.550076,254.930976 147.333333,254.934699 L144.461538,254.934699 C144.448728,254.933976 144.435888,254.933976 144.423077,254.934699 Z" id="Shape"></path>
        </g>
    </g>
</svg>