<svg width="40px" height="40px" viewBox="0 0 40 40" xmlns="http://www.w3.org/2000/svg">
 <!-- Generator: Sketch 41.1 (35376) - http://www.bohemiancoding.com/sketch -->
 <title>pin</title>
 <desc>Created with Sketch.</desc>

 <g>
  <title>background</title>
  <rect fill="none" id="canvas_background" height="402" width="582" y="-1" x="-1"/>
 </g>
 <g>
  <title>Layer 1</title>
  <g fill-rule="evenodd" fill="none" id="Page-1">
   <g fill="#000000" id="icons">
    <g id="Group-7">
     <path id="Shape" d="m14.04487,18.20357c-1.59786,0.92523 -2.56487,2.21092 -2.56487,3.72971c0.00007,0.71616 0.56392,1.29528 1.25786,1.29535l14.52421,0c0.69401,-0.00007 1.25786,-0.57919 1.25793,-1.29528c0,-1.51886 -0.96701,-2.80455 -2.56487,-3.72978l-1.22542,-4.87341c0.67422,-0.49003 1.10063,-1.28838 1.10063,-2.17057c0,-1.47276 -1.17209,-2.67659 -2.60275,-2.67659l-6.45518,0c-1.43066,0 -2.60275,1.20383 -2.60275,2.67659c0,0.88219 0.42641,1.68054 1.10063,2.17057l-1.22542,4.87341zm-1.11507,3.53935c0.09094,-0.88166 0.81237,-1.71796 2.06085,-2.37696l0.28781,-0.15192l1.68871,-6.71589l-0.60212,-0.23701c-0.4528,-0.17823 -0.75539,-0.61418 -0.75539,-1.10155c0,-0.65071 0.52593,-1.19088 1.16275,-1.19088l6.45518,0c0.63682,0 1.16275,0.54017 1.16275,1.19088c0,0.48737 -0.30259,0.92332 -0.75539,1.10155l-0.60212,0.23701l1.68871,6.71589l0.28781,0.15192c1.24845,0.65899 1.96988,1.49526 2.06084,2.37696l-14.14039,0z"/>
     <path id="Path-4" d="m19.45173,22.65544l0,9.39291c0,0.41026 0.32236,0.74285 0.72,0.74285c0.39765,0 0.72,-0.33259 0.72,-0.74285l0,-9.39291c0,-0.41027 -0.32235,-0.74286 -0.72,-0.74286c-0.39764,0 -0.72,0.33259 -0.72,0.74286z"/>
    </g>
   </g>
  </g>
  <line stroke="#000" stroke-linecap="undefined" stroke-linejoin="undefined" id="svg_3" y2="26.063381" x2="9.908451" y1="10.5" x1="28.5" fill="none"/>
 </g>
</svg>